<?xml version="1.0" encoding="utf-8"?>
<!-- Generator: Adobe Illustrator 25.0.1, SVG Export Plug-In . SVG Version: 6.00 Build 0)  -->
<svg version="1.1" id="Layer_1" xmlns="http://www.w3.org/2000/svg" xmlns:xlink="http://www.w3.org/1999/xlink" x="0px" y="0px"
	 viewBox="0 0 316 88" style="enable-background:new 0 0 316 88;" xml:space="preserve">
<style type="text/css">
	.st0{fill:#0073D8;}
	.st1{fill:#1A1A1A;}
</style>
<g>
	<path class="st0" d="M146.1,63.4l-1.7-1.9c-1.4,1.4-2.9,2.7-4.6,3.7l1.5,1.9C143.1,66,144.7,64.8,146.1,63.4z"/>
	<path class="st0" d="M161.3,79.8c-0.1-0.3-0.4-0.7-0.6-1.1c-0.1-0.2-0.3-0.4-0.5-0.6c-2.3-2.5-7.2-7.9-13-14.5l-0.4,0.4
		c-1.6,1.7-3.2,3-4.9,4.1l-0.4,0.2c5.3,6.3,10.6,12.5,12.8,15.3c0,0.1,0.1,0.1,0.1,0.2c0.2,0.3,0.5,0.5,0.7,0.7
		C158.2,87.2,163,83.7,161.3,79.8z M159.7,80c-0.1,0.1-0.2,0.1-0.3,0.1c-0.1,0-0.3,0-0.4-0.1l-11.3-12.4c-0.2-0.2-0.1-0.5,0-0.6
		c0.2-0.2,0.5-0.1,0.6,0l11.3,12.4C159.8,79.6,159.8,79.9,159.7,80z"/>
	<path class="st0" d="M114.8,28.4c-0.1,0.1-0.3,0.1-0.4,0.1C114.5,28.5,114.7,28.5,114.8,28.4z"/>
	<path class="st0" d="M102.1,36.2l0.7,0.2c0.4,0.1,0.8,0.2,1.2,0.2c0.9-2.2,0.9-3.7,3.9-8c2.2,0.8,4.3,1.7,6.4,2.5c0,0,0,0,0,0
		c-0.2,1.4-1,5.4-1.5,7.9l0.1,0l1.7,0.4c0.5-2.3,1.4-5.9,1.7-7.2c0,0,0.2-1,0.4-0.9l0.1,0l2.1,0.4c2,0.2,4,0.5,6.1,0.8v8.8h-4.6
		l0.1,1.4l-0.5,0.5c0,0,0,0.1-0.1,0.1h5.1v6.5c0.7,0.1,1.3,0.2,2,0.2v-6.7l9.9,0.2c0,1.3,0,3.7,0,5.1c0.8-0.3,1.5-0.6,2.2-0.9
		c0-1.5-0.2-3.6,0-4.4h7.1c0.9-0.7,1.7-1.4,2.3-2.1l-9.5,0.1c-0.3-2.2-0.5-4.6-0.8-6.8c-0.1-0.7-0.2-1.5-0.4-2.6l-0.2-1l1.5-0.6
		c1.6-0.6,3.2-1.2,4.9-1.8c1.8,2.2,3.4,5.6,4.1,8.7c0.2,1.2,0.5,3.1,0.6,3.7c0.6-0.6,1.1-1.2,1.5-1.7l1.4-1.8
		c-2-12.6-12.9-22.3-26.1-22.3c-12.5,0-23,8.7-25.7,20.4c0.2,0,0.3,0.1,0.5,0.1C101.1,36,101.9,36.2,102.1,36.2z M142.7,27
		c-2,0.8-3.9,1.5-5.5,2.1l0,0c-0.4-0.8-0.8-1.5-1.2-2.2c-0.8-1.4-1.5-2.7-2.2-4.1c-0.3-0.5-0.6-1-0.8-1.5c-0.1-0.3-0.3-0.5-0.4-0.8
		l0,0C136.2,21.7,139.7,23.8,142.7,27z M126.9,19.9c0.2,0,0.3,0,0.5,0c2.5,0.5,5.6,5,7.3,9.8l0,0c-0.6,0.1-1.2,0.1-1.8,0.2
		c-1.6,0.2-3.2,0.4-4.8,0.5c-0.4,0-0.8,0.1-1.2,0.1L126.9,19.9L126.9,19.9z M126.8,32.9c0-0.1,0-0.3,0-0.3c2.4-0.3,4.7-0.6,7-0.9
		l1.5-0.2l0,0.2l0.2,1c0.5,2.8,1.1,5.5,1.1,8.6l-9.9,0C126.8,38.5,126.8,35.7,126.8,32.9z M124,20.1c0.1,0,0.1,0,0.2-0.1
		c0.1,0,0.1-0.1,0.2-0.1c0.1,0,0.1,0,0.2-0.1c0.1,0,0.1,0,0.2-0.1c0.1,0,0.2,0,0.2-0.1c0,0,0,0,0,0c0,0,0,0,0,0v3.4
		c0,1.8,0,3.6,0,5.4c0,0.4,0,0.7,0,1.1c0,0,0,0,0,0c0,0,0,0.1,0,0.1v0.8l-0.4,0l0,0c0,0,0,0,0,0c0,0-0.1,0-0.2,0
		c-0.4,0-0.7-0.1-1.1-0.1c0,0-0.1,0-0.1,0c0,0,0,0,0,0c-2-0.2-4.1-0.5-6-0.7l0,0c-0.1,0-0.1,0-0.2,0c0.1-0.9,0.5-1.9,0.9-2.9
		c0,0,0,0,0,0C119.2,24,121.7,21.1,124,20.1z M109.4,26.7L109.4,26.7c1.1-1.2,2.3-2.2,3.5-3c2.1-1.4,4.3-2.5,7-3.3h0
		c-0.6,0.7-1.1,1.4-1.6,2.1c-1.3,1.9-2.1,4-3.1,6c-0.1,0.2-0.2,0.4-0.3,0.5c-0.1,0.1-0.3,0.1-0.4,0.1c-0.1,0-0.1,0-0.2-0.1
		c-0.2-0.1-0.3-0.1-0.5-0.2c-0.5-0.2-1-0.3-1.5-0.5c-1-0.4-2-0.8-3.2-1.2c-0.1,0-0.1,0-0.2-0.1C109.2,26.9,109.3,26.8,109.4,26.7z"
		/>
	<path class="st0" d="M151.4,41.7c0-0.5,0-0.9,0-1.4c-3.3,4.3-15.9,15.9-32.9,9.5c-1.1-0.4-1.3-0.6-2.2-1c-0.7-0.4-1.8-1-2-1.3
		c1.7-1.7,2.7-3.2,4.3-4.8c0,0,0.1-0.1,0.2-0.3l0-0.1l0,0c-0.2,0-0.4-0.1-0.6-0.2c-1.3-0.3-2.7-0.7-4-1c0,0,0,0,0,0l-1.8-0.5
		c0,0,0,0,0,0c-4.2-1.1-8.4-2.2-12.6-3.3c-0.2,1.4-0.4,2.9-0.4,4.4c0,5.8,1.9,11.1,5.1,15.5c0.6-0.6,1.2-1.2,1.7-1.7
		c4.4,2.8,10.5,5.1,15.6,5c19.2,0.5,25.8-11.3,25.8-11.3c-2.8,9.3-13.5,16.1-26.8,16c-1.3,0-4.7-0.2-7.3-0.3
		c3.5,1.8,7.6,2.8,11.8,2.8C139.8,67.6,151.4,56,151.4,41.7z"/>
</g>
<path class="st1" d="M27,32.6c-1.3-0.6-2.7-1-4.3-1.3c-1.6-0.3-3.2-0.4-4.7-0.4c-2,0-3.5,0.3-4.5,0.9c-0.9,0.6-1.4,1.4-1.4,2.4
	c0,0.6,0.1,1.1,0.3,1.5c0.2,0.4,0.5,0.7,1.1,1c0.5,0.3,1.3,0.6,2.3,0.8c1,0.2,2.3,0.4,4,0.6c4.9,0.7,8.6,2,10.9,3.9s3.6,4.8,3.6,8.8
	c0,2-0.4,3.7-1.3,5.1c-0.9,1.5-2.1,2.7-3.5,3.7s-3.2,1.7-5.2,2.2c-2,0.5-4.1,0.7-6.3,0.7c-2.7,0-5.3-0.3-7.7-0.9
	c-2.4-0.6-4.6-1.5-6.5-2.5C2.9,58.8,2.4,58,2.1,57c-0.2-1-0.1-2,0.4-3c0.6-1,1.3-1.8,2.3-2.1c1-0.4,1.9-0.3,2.8,0.1
	c1.4,0.8,3,1.4,4.7,1.8c1.7,0.4,3.6,0.7,5.5,0.7c2.1,0.1,3.7-0.2,5-0.8c1.2-0.7,1.9-1.6,1.9-2.8c0-0.7-0.1-1.2-0.3-1.7
	c-0.2-0.5-0.7-0.9-1.3-1.2c-0.7-0.3-1.6-0.7-2.7-0.9c-1.2-0.3-2.7-0.5-4.7-0.8c-4.3-0.6-7.5-1.8-9.7-3.6c-2.2-1.8-3.3-4.6-3.3-8.3
	c0-1.8,0.4-3.5,1.1-4.9c0.7-1.4,1.8-2.6,3.1-3.6c1.3-1,2.9-1.8,4.8-2.3c1.9-0.5,3.9-0.8,6.2-0.8c2.3,0,4.4,0.2,6.5,0.8
	c2.1,0.5,4.1,1.2,5.9,2.1c0.8,0.3,1.3,1,1.6,2c0.3,1,0.2,1.9-0.3,2.9c-0.5,1-1.2,1.7-2.1,2.2C28.7,33,27.8,33,27,32.6z"/>
<path class="st1" d="M85.5,38.3c0-1.9-0.6-3.4-1.9-4.7c-1.3-1.3-2.9-1.9-4.7-1.9c-0.9,0-1.8,0.2-2.6,0.5c-0.8,0.3-1.5,0.8-2.1,1.4
	c-0.6,0.6-1.1,1.3-1.4,2.1c-0.3,0.8-0.5,1.7-0.5,2.6v19.9c0,1.1-0.5,2.1-1.4,2.8c-0.9,0.7-2,1.1-3.3,1.1c-1.3,0-2.3-0.4-3.3-1.1
	c-0.9-0.7-1.4-1.7-1.4-2.8V38.3c0-1.9-0.6-3.4-1.9-4.7c-1.2-1.3-2.8-1.9-4.7-1.9c-0.9,0-1.8,0.2-2.6,0.5c-0.8,0.3-1.5,0.8-2.1,1.4
	c-0.6,0.6-1,1.3-1.4,2.1c-0.3,0.8-0.5,1.7-0.5,2.6v19.9c0,1.1-0.5,2.1-1.4,2.8s-2,1.1-3.3,1.1c-1.3,0-2.3-0.4-3.2-1.1
	c-0.9-0.7-1.3-1.7-1.3-2.8V27c0-1.1,0.4-2,1.3-2.6c0.9-0.7,1.9-1,3.1-1s2.2,0.3,3.1,1c0.9,0.7,1.4,1.6,1.4,2.6v2.3h0.1
	c0.4-0.7,1-1.4,1.6-2.2c0.6-0.8,1.3-1.5,2.2-2.1c0.8-0.7,1.8-1.2,2.8-1.6c1-0.4,2.2-0.6,3.6-0.6c2.4,0,4.5,0.6,6.1,1.9
	c1.7,1.2,3.1,2.8,4.2,4.7c0.6-0.8,1.2-1.6,2-2.4c0.8-0.8,1.6-1.5,2.6-2.1c1-0.6,2-1.1,3.1-1.5s2.3-0.6,3.6-0.6
	c2.1,0,3.9,0.4,5.6,1.1c1.6,0.7,3,1.8,4.2,3.2c1.2,1.4,2,3,2.6,4.9c0.6,1.9,0.9,4,0.9,6.3v19.9c0,1.1-0.5,2-1.4,2.8
	c-0.9,0.8-2,1.1-3.3,1.1c-1.3,0-2.3-0.4-3.3-1.1c-0.9-0.8-1.4-1.7-1.4-2.8L85.5,38.3L85.5,38.3z"/>
<path class="st1" d="M176.2,22.8c1,0,2,0.1,3.1,0.4c1,0.2,1.8,0.7,2.5,1.5c0.7,0.8,1,1.7,1,2.8c0,1.3-0.4,2.3-1.3,3.2
	c-0.8,0.8-1.9,1.3-3.2,1.3c-0.2,0-0.5,0-0.9-0.1c-0.4,0-0.9-0.1-1.7-0.2c-1.3,0-2.4,0.2-3.5,0.7c-1.1,0.5-2,1.2-2.8,2.1
	c-0.8,0.9-1.4,1.9-1.9,3.2c-0.5,1.2-0.7,2.5-0.7,3.8v16.8c0,1.1-0.5,2-1.4,2.8c-0.9,0.8-2,1.1-3.3,1.1s-2.3-0.4-3.3-1.1
	c-0.9-0.8-1.4-1.7-1.4-2.8V27c0-1,0.4-1.9,1.3-2.6c0.8-0.7,1.9-1.1,3-1.1s2.2,0.4,3,1.1c0.8,0.7,1.3,1.6,1.3,2.6v2.1h0.1
	c0.5-0.8,1-1.6,1.6-2.4c0.6-0.8,1.3-1.4,2.1-2s1.7-1.1,2.7-1.4C173.9,22.9,175,22.8,176.2,22.8z"/>
<path class="st1" d="M190.4,18.7c0-1,0.4-1.9,1.3-2.7c0.9-0.8,2-1.1,3.2-1.1c1.3,0,2.3,0.4,3.2,1.1c0.9,0.8,1.3,1.7,1.3,2.7v5.2h3.3
	c1,0,1.8,0.4,2.4,1.2c0.7,0.8,1,1.7,1,2.9c0,1.1-0.3,2.1-1,2.9c-0.7,0.8-1.5,1.2-2.4,1.2h-3.3v18.5c0,0.7,0.2,1.2,0.7,1.6
	c0.4,0.4,1,0.7,1.6,0.7h1c1,0,1.8,0.4,2.4,1.3c0.7,0.8,1,1.9,1,3.2c0,1.3-0.3,2.3-1,3.2c-0.7,0.8-1.5,1.3-2.4,1.3h-1
	c-3.4,0-6.2-0.8-8.2-2.5c-2.1-1.7-3.1-4.3-3.1-7.9V31.9h-1.1c-1,0-1.8-0.4-2.4-1.2c-0.7-0.8-1-1.7-1-2.9c0-1.1,0.3-2.1,1-2.9
	c0.7-0.8,1.5-1.2,2.4-1.2h1.1L190.4,18.7L190.4,18.7z"/>
<path class="st1" d="M236.5,57.5l-0.2-0.1c-1.3,1.6-3,2.9-5.1,3.8c-2,1-4.2,1.4-6.4,1.4c-2.9,0-5.3-0.3-7.4-1c-2-0.7-3.7-1.6-5-2.9
	c-1.3-1.2-2.2-2.6-2.8-4.3c-0.6-1.6-0.9-3.4-0.9-5.2c0-2,0.3-3.7,0.9-5.4c0.6-1.6,1.5-3,2.8-4.2c1.3-1.2,2.9-2.1,5-2.7
	c2-0.7,4.5-1,7.4-1c1.4,0,2.7,0.2,3.8,0.5c1.1,0.3,2.1,0.7,3,1.1c0.9,0.5,1.6,1,2.3,1.5c0.7,0.5,1.2,1.1,1.7,1.6l0.2-0.1v-4.8
	c0-0.7-0.2-1.3-0.7-1.9c-0.4-0.6-1-1.1-1.8-1.5c-0.7-0.4-1.6-0.7-2.6-1c-1-0.3-2.1-0.4-3.2-0.4c-2.2,0-4.2,0.2-5.9,0.6
	c-1.7,0.4-3.2,0.8-4.4,1.3c-0.9,0.4-1.8,0.4-2.7-0.1c-0.9-0.5-1.6-1.2-2.1-2.3c-0.4-1-0.5-2-0.2-2.9c0.3-1,0.8-1.6,1.6-2
	c2-0.9,4.1-1.6,6.4-2.1c2.3-0.5,4.7-0.8,7.3-0.8c2.3,0,4.5,0.3,6.6,1c2.1,0.7,4,1.6,5.6,2.7c1.6,1.2,2.9,2.5,3.8,4.1
	c1,1.6,1.4,3.4,1.4,5.3v22.7c0,1.1-0.4,2-1.3,2.7c-0.8,0.7-1.9,1-3,1s-2.2-0.3-3-1c-0.8-0.7-1.2-1.5-1.2-2.7L236.5,57.5L236.5,57.5z
	 M235.8,49.3c0-1.4-0.8-2.6-2.3-3.6c-1.6-1-3.7-1.6-6.4-1.6c-1.7,0-3.1,0.1-4.2,0.4c-1.1,0.3-1.9,0.6-2.6,1.1
	c-0.6,0.5-1.1,1-1.3,1.6c-0.2,0.6-0.4,1.3-0.4,2.1c0,0.8,0.1,1.5,0.4,2.2c0.2,0.7,0.7,1.2,1.3,1.7c0.6,0.5,1.5,0.8,2.6,1.1
	c1.1,0.3,2.5,0.4,4.2,0.4c2.7,0,4.9-0.5,6.4-1.6S235.8,50.8,235.8,49.3z"/>
<path class="st1" d="M270,22.8c1,0,2,0.1,3.1,0.4c1,0.2,1.8,0.7,2.5,1.5c0.7,0.8,1,1.7,1,2.8c0,1.3-0.4,2.3-1.3,3.2
	c-0.8,0.8-1.9,1.3-3.2,1.3c-0.2,0-0.5,0-0.9-0.1c-0.4,0-0.9-0.1-1.7-0.2c-1.3,0-2.4,0.2-3.5,0.7c-1.1,0.5-2,1.2-2.8,2.1
	c-0.8,0.9-1.4,1.9-1.9,3.2c-0.5,1.2-0.7,2.5-0.7,3.8v16.8c0,1.1-0.5,2-1.4,2.8c-0.9,0.8-2,1.1-3.3,1.1s-2.3-0.4-3.3-1.1
	c-0.9-0.8-1.4-1.7-1.4-2.8V27c0-1,0.4-1.9,1.3-2.6c0.8-0.7,1.9-1.1,3-1.1c1.2,0,2.2,0.4,3,1.1c0.8,0.7,1.3,1.6,1.3,2.6v2.1h0.1
	c0.5-0.8,1-1.6,1.6-2.4c0.6-0.8,1.3-1.4,2.1-2c0.8-0.6,1.7-1.1,2.7-1.4C267.7,22.9,268.8,22.8,270,22.8z"/>
<path class="st1" d="M314.1,57.3c0,1.1-0.3,2.1-1,3c-0.7,0.9-1.5,1.3-2.4,1.3h-26.6c-1,0-1.8-0.4-2.5-1.2c-0.7-0.8-1.1-1.8-1.1-2.9
	c0-0.6,0.1-1.2,0.4-1.7c0.3-0.5,0.6-1,0.9-1.4l18-21.7v-0.1H284c-1,0-1.8-0.4-2.4-1.3c-0.7-0.9-1-1.9-1-3c0-1.1,0.3-2.1,1-3
	c0.7-0.9,1.5-1.3,2.4-1.3h26.6c1,0,1.8,0.4,2.4,1.2c0.7,0.8,1,1.8,1,2.9c0,1.2-0.4,2.3-1.2,3.1l-18,21.7v0.1h15.8
	c1,0,1.8,0.4,2.4,1.3C313.8,55.1,314.1,56.2,314.1,57.3z"/>
</svg>
