<svg id="Group_166" data-name="Group 166" xmlns="http://www.w3.org/2000/svg" width="127.101" height="18.474" viewBox="0 0 127.101 18.474">
  <path id="Icon_material-star" data-name="Icon material-star" d="M12.723,17.847l6.009,3.627-1.595-6.835,5.309-4.6-6.991-.593L12.723,3,9.991,9.446,3,10.04l5.309,4.6L6.714,21.474Z" transform="translate(-3 -3)" fill="#d53535"/>
  <path id="Icon_material-star-2" data-name="Icon material-star" d="M12.723,17.847l6.009,3.627-1.595-6.835,5.309-4.6-6.991-.593L12.723,3,9.991,9.446,3,10.04l5.309,4.6L6.714,21.474Z" transform="translate(23.914 -3)" fill="#d53535"/>
  <path id="Icon_material-star-3" data-name="Icon material-star" d="M12.723,17.847l6.009,3.627-1.595-6.835,5.309-4.6-6.991-.593L12.723,3,9.991,9.446,3,10.04l5.309,4.6L6.714,21.474Z" transform="translate(50.827 -3)" fill="#d53535"/>
  <path id="Icon_material-star-4" data-name="Icon material-star" d="M12.723,17.847l6.009,3.627-1.595-6.835,5.309-4.6-6.991-.593L12.723,3,9.991,9.446,3,10.04l5.309,4.6L6.714,21.474Z" transform="translate(77.741 -3)" fill="#d53535"/>
  <path id="Icon_material-star-5" data-name="Icon material-star" d="M12.723,17.847l6.009,3.627-1.595-6.835,5.309-4.6-6.991-.593L12.723,3,9.991,9.446,3,10.04l5.309,4.6L6.714,21.474Z" transform="translate(104.654 -3)" fill="#c4c4c4"/>
</svg>
